name Walk6.mot
datacolumns 19
datarows 27
range 1.71500000 1.84500000
endheader

                time	   L_ground_force_vx	   L_ground_force_vy	   L_ground_force_vz	   L_ground_force_px	   L_ground_force_py	   L_ground_force_pz	   R_ground_force_vx	   R_ground_force_vy	   R_ground_force_vz	   R_ground_force_px	   R_ground_force_py	   R_ground_force_pz	   L_ground_torque_x	   L_ground_torque_y	   L_ground_torque_z	   R_ground_torque_x	   R_ground_torque_y	   R_ground_torque_z	
          1.71500000	          0.00878756	          0.04843267	         -0.00205117	         -0.00024468	          0.00000000	         -0.00002409	        -31.91245731	        542.88903080	        -21.32693888	          0.25338039	          0.00000000	          0.07715522	          0.00000000	          0.00016473	          0.00000000	          0.00000000	          0.47415394	          0.00000000	
          1.72000000	          0.00383456	          0.02789712	         -0.00116180	         -0.00019551	          0.00000000	         -0.00002004	        -30.53516196	        543.97277290	        -21.43213596	          0.25620748	          0.00000000	          0.07666513	          0.00000000	          0.00017083	          0.00000000	          0.00000000	          0.55480620	          0.00000000	
          1.72500000	          0.00035502	          0.01252175	         -0.00049958	         -0.00014852	          0.00000000	         -0.00001585	        -29.22644386	        545.61971160	        -21.52666599	          0.25900242	          0.00000000	          0.07615581	          0.00000000	          0.00016122	          0.00000000	          0.00000000	          0.64056296	          0.00000000	
          1.73000000	         -0.00190441	          0.00167150	         -0.00003540	         -0.00010664	          0.00000000	         -0.00001192	        -28.01273091	        547.84262595	        -21.61092398	          0.26175943	          0.00000000	          0.07562763	          0.00000000	          0.00014231	          0.00000000	          0.00000000	          0.73083111	          0.00000000	
          1.73500000	         -0.00320273	         -0.00541875	          0.00026507	         -0.00007135	          0.00000000	         -0.00000845	        -26.91663758	        550.65260152	        -21.68551352	          0.26446922	          0.00000000	          0.07508017	          0.00000000	          0.00011893	          0.00000000	          0.00000000	          0.82485483	          0.00000000	
          1.74000000	         -0.00378202	         -0.00953703	          0.00043679	         -0.00004307	          0.00000000	         -0.00000556	        -25.95464250	        554.05977731	        -21.75099909	          0.26712137	          0.00000000	          0.07451350	          0.00000000	          0.00009453	          0.00000000	          0.00000000	          0.92168878	          0.00000000	
          1.74500000	         -0.00385439	         -0.01142374	          0.00051237	         -0.00002154	          0.00000000	         -0.00000327	        -25.13429453	        558.07298694	        -21.80864914	          0.26970639	          0.00000000	          0.07392928	          0.00000000	          0.00007141	          0.00000000	          0.00000000	          1.02008400	          0.00000000	
          1.75000000	         -0.00359597	         -0.01173017	          0.00052031	         -0.00000602	          0.00000000	         -0.00000154	        -24.45254321	        562.69767960	        -21.86127781	          0.27221588	          0.00000000	          0.07333169	          0.00000000	          0.00005093	          0.00000000	          0.00000000	          1.11824936	          0.00000000	
          1.75500000	         -0.00314585	         -0.01099897	          0.00048425	          0.00000441	          0.00000000	         -0.00000031	        -23.89626772	        567.93171008	        -21.91417858	          0.27464185	          0.00000000	          0.07272721	          0.00000000	          0.00003377	          0.00000000	          0.00000000	          1.21377295	          0.00000000	
          1.76000000	         -0.00260840	         -0.00966017	          0.00042283	          0.00001074	          0.00000000	          0.00000051	        -23.44324057	        573.76149323	        -21.97670699	          0.27697724	          0.00000000	          0.07212357	          0.00000000	          0.00002010	          0.00000000	          0.00000000	          1.30394887	          0.00000000	
          1.76500000	         -0.00205745	         -0.00803763	          0.00035000	          0.00001396	          0.00000000	          0.00000099	        -23.06357773	        580.15816029	        -22.06311171	          0.27921710	          0.00000000	          0.07152756	          0.00000000	          0.00000974	          0.00000000	          0.00000000	          1.38600067	          0.00000000	
          1.77000000	         -0.00154141	         -0.00636144	          0.00027562	          0.00001491	          0.00000000	          0.00000122	        -22.72150795	        587.07693825	        -22.19231218	          0.28135906	          0.00000000	          0.07094572	          0.00000000	          0.00000233	          0.00000000	          0.00000000	          1.45726769	          0.00000000	
          1.77500000	         -0.00108858	         -0.00478342	          0.00020612	          0.00001435	          0.00000000	          0.00000127	        -22.37726430	        594.45854347	        -22.38611875	          0.28340400	          0.00000000	          0.07038483	          0.00000000	         -0.00000261	          0.00000000	          0.00000000	          1.51556677	          0.00000000	
          1.78000000	         -0.00071210	         -0.00339316	          0.00014525	          0.00001285	          0.00000000	          0.00000120	        -21.98892180	        602.23307479	        -22.66670819	          0.28535656	          0.00000000	          0.06985103	          0.00000000	         -0.00000557	          0.00000000	          0.00000000	          1.55921440	          0.00000000	
          1.78500000	         -0.00041435	         -0.00223325	          0.00009473	          0.00001088	          0.00000000	          0.00000106	        -21.51442161	        610.32409086	        -23.05413546	          0.28722407	          0.00000000	          0.06934982	          0.00000000	         -0.00000703	          0.00000000	          0.00000000	          1.58699502	          0.00000000	
          1.79000000	         -0.00019064	         -0.00131280	          0.00005484	          0.00000875	          0.00000000	          0.00000089	        -20.91477688	        618.65141251	        -23.56404024	          0.28901461	          0.00000000	          0.06888508	          0.00000000	         -0.00000741	          0.00000000	          0.00000000	          1.59833795	          0.00000000	
          1.79500000	         -0.00003210	         -0.00061871	          0.00002492	          0.00000669	          0.00000000	          0.00000071	        -20.15693157	        627.13659490	        -24.20535976	          0.29073455	          0.00000000	          0.06845825	          0.00000000	         -0.00000707	          0.00000000	          0.00000000	          1.59357614	          0.00000000	
          1.80000000	          0.00007211	         -0.00012467	          0.00000376	          0.00000484	          0.00000000	          0.00000054	        -19.21531888	        635.71106746	        -24.97753476	          0.29238857	          0.00000000	          0.06806925	          0.00000000	         -0.00000629	          0.00000000	          0.00000000	          1.57381455	          0.00000000	
          1.80500000	          0.00013323	          0.00020201	         -0.00001010	          0.00000328	          0.00000000	          0.00000038	        -18.07161020	        644.32067712	        -25.86836921	          0.29398054	          0.00000000	          0.06771642	          0.00000000	         -0.00000529	          0.00000000	          0.00000000	          1.54093930	          0.00000000	
          1.81000000	          0.00016189	          0.00039553	         -0.00001820	          0.00000201	          0.00000000	          0.00000026	        -16.71376397	        652.92668029	        -26.85419097	          0.29551281	          0.00000000	          0.06739615	          0.00000000	         -0.00000423	          0.00000000	          0.00000000	          1.49752623	          0.00000000	
          1.81500000	          0.00016747	          0.00048834	         -0.00002195	          0.00000104	          0.00000000	          0.00000015	        -15.13460453	        661.50770484	        -27.90190306	          0.29698522	          0.00000000	          0.06710370	          0.00000000	         -0.00000322	          0.00000000	          0.00000000	          1.44641697	          0.00000000	
          1.82000000	          0.00015780	          0.00050924	         -0.00002262	          0.00000034	          0.00000000	          0.00000008	        -13.32955850	        670.05548837	        -28.97194807	          0.29839593	          0.00000000	          0.06683444	          0.00000000	         -0.00000232	          0.00000000	          0.00000000	          1.39064713	          0.00000000	
          1.82500000	          0.00013912	          0.00048237	         -0.00002126	         -0.00000014	          0.00000000	          0.00000002	        -11.29528575	        678.56900757	        -30.02180665	          0.29974189	          0.00000000	          0.06658417	          0.00000000	         -0.00000155	          0.00000000	          0.00000000	          1.33341192	          0.00000000	
          1.83000000	          0.00011613	          0.00042699	         -0.00001870	         -0.00000044	          0.00000000	         -0.00000002	         -9.02897573	        687.05086338	        -31.00945976	          0.30101952	          0.00000000	          0.06634927	          0.00000000	         -0.00000094	          0.00000000	          0.00000000	          1.27780634	          0.00000000	
          1.83500000	          0.00009221	          0.00035770	         -0.00001559	         -0.00000059	          0.00000000	         -0.00000004	         -6.52858161	        695.50339638	        -31.89532296	          0.30222535	          0.00000000	          0.06612693	          0.00000000	         -0.00000047	          0.00000000	          0.00000000	          1.22669159	          0.00000000	
          1.84000000	          0.00006958	          0.00028498	         -0.00001236	         -0.00000064	          0.00000000	         -0.00000005	         -3.79425944	        703.92693880	        -32.64302933	          0.30335628	          0.00000000	          0.06591495	          0.00000000	         -0.00000014	          0.00000000	          0.00000000	          1.18260138	          0.00000000	
          1.84500000	          0.00004956	          0.00021581	         -0.00000931	         -0.00000063	          0.00000000	         -0.00000006	         -0.82980358	        712.31660886	        -33.22007695	          0.30441072	          0.00000000	          0.06571143	          0.00000000	          0.00000009	          0.00000000	          0.00000000	          1.14772027	          0.00000000	
